<?xml version="1.0" encoding="utf-8"?>
<!-- Generator: Adobe Illustrator 16.0.0, SVG Export Plug-In . SVG Version: 6.00 Build 0)  -->
<!DOCTYPE svg PUBLIC "-//W3C//DTD SVG 1.1//EN" "http://www.w3.org/Graphics/SVG/1.1/DTD/svg11.dtd">
<svg version="1.1" id="Layer_1" xmlns="http://www.w3.org/2000/svg" xmlns:xlink="http://www.w3.org/1999/xlink" x="0px" y="0px"
	 width="257.566px" height="50px" viewBox="0 0 257.566 50" enable-background="new 0 0 257.566 50" xml:space="preserve">
<g>
	<path fill="#9D9FA2" d="M32.021,39.251h1.628l-0.895,5.687c-0.142,0.904-0.313,1.539-0.512,1.904
		c-0.203,0.366-0.483,0.654-0.844,0.87c-0.361,0.218-0.773,0.325-1.233,0.325c-0.938,0-1.671-0.414-2.203-1.241l1.345-1.103
		c0.213,0.296,0.401,0.494,0.567,0.595c0.165,0.101,0.332,0.151,0.502,0.151c0.174,0,0.313-0.073,0.423-0.224
		c0.107-0.146,0.201-0.472,0.28-0.974l0.942-5.993L32.021,39.251L32.021,39.251z"/>
	<path fill="#9D9FA2" d="M35.84,39.251h4.651l-0.25,1.597H37.2l-0.245,1.549h3.041l-0.246,1.569h-3.041l-0.354,2.253h3.041
		l-0.252,1.602h-4.651L35.84,39.251z"/>
	<path fill="#9D9FA2" d="M42.246,39.251h4.651l-0.25,1.597h-3.041l-0.245,1.549h3.041l-0.246,1.569h-3.041l-0.354,2.253h3.04
		L45.55,47.82h-4.65L42.246,39.251z"/>
	<path fill="#9D9FA2" d="M53.029,39.251h1.582l1.036,5.976l2.932-5.976h1.578l0.082,8.567h-1.567l-0.061-5.409l-2.662,5.409h-1.433
		l-0.942-5.409l-1.788,5.409h-1.582L53.029,39.251z"/>
	<path fill="#9D9FA2" d="M65.715,39.251h1.646l1.929,8.567h-1.683l-0.392-1.767h-3.478l-0.97,1.767h-1.688L65.715,39.251z
		 M66.19,41.523l-1.605,2.939h2.279L66.19,41.523z"/>
	<path fill="#9D9FA2" d="M72.013,39.251h1.61l-1.348,8.567h-1.611L72.013,39.251z"/>
	<path fill="#9D9FA2" d="M75.693,39.251h1.555l2.758,5.64l0.887-5.64h1.623l-1.349,8.567h-1.561l-2.756-5.619l-0.886,5.619h-1.62
		L75.693,39.251z"/>
	<path fill="#9D9FA2" d="M104.602,39.251h1.626l-0.895,5.687c-0.142,0.904-0.314,1.539-0.515,1.904
		c-0.197,0.366-0.479,0.654-0.842,0.87c-0.361,0.218-0.774,0.325-1.233,0.325c-0.938,0-1.672-0.414-2.206-1.241l1.347-1.103
		c0.212,0.296,0.401,0.494,0.565,0.595c0.166,0.101,0.333,0.151,0.502,0.151c0.173,0,0.314-0.073,0.422-0.224
		c0.107-0.146,0.203-0.472,0.282-0.974l0.942-5.992L104.602,39.251L104.602,39.251z"/>
	<path fill="#9D9FA2" d="M108.419,39.251h4.65l-0.25,1.597h-3.04l-0.245,1.549h3.04l-0.246,1.569h-3.04l-0.354,2.253h3.04
		l-0.252,1.602h-4.65L108.419,39.251z"/>
	<path fill="#9D9FA2" d="M114.827,39.251h4.651l-0.25,1.597h-3.041l-0.245,1.549h3.041l-0.246,1.569h-3.041l-0.354,2.253h3.041
		l-0.252,1.602h-4.65L114.827,39.251z"/>
	<path fill="#9D9FA2" d="M127.383,39.251h1.646l1.928,8.567h-1.685l-0.391-1.767h-3.478l-0.973,1.767h-1.686L127.383,39.251z
		 M127.856,41.523l-1.606,2.939h2.28L127.856,41.523z"/>
	<path fill="#9D9FA2" d="M133.801,39.251h1.923c1.238,0,2.137,0.155,2.688,0.462c0.551,0.311,0.969,0.813,1.25,1.507
		c0.282,0.694,0.348,1.507,0.201,2.436c-0.105,0.659-0.307,1.269-0.612,1.819c-0.304,0.553-0.677,1.015-1.119,1.379
		c-0.441,0.364-0.896,0.617-1.363,0.756c-0.471,0.142-1.261,0.211-2.362,0.211h-1.951L133.801,39.251L133.801,39.251z
		 M135.168,40.822l-0.85,5.406h0.752c0.738,0,1.289-0.084,1.652-0.256c0.358-0.173,0.678-0.459,0.954-0.861
		c0.277-0.405,0.461-0.903,0.554-1.493c0.143-0.911,0-1.616-0.424-2.118c-0.386-0.45-1.084-0.678-2.093-0.678H135.168z"/>
	<path fill="#9D9FA2" d="M141.694,39.251h1.667l1.188,6.086l3.132-6.086h1.665l-4.417,8.567h-1.563L141.694,39.251z"/>
	<path fill="#9D9FA2" d="M153.482,39.251h1.646l1.931,8.567h-1.688l-0.387-1.767h-3.479l-0.972,1.767h-1.687L153.482,39.251z
		 M153.958,41.523l-1.604,2.939h2.276L153.958,41.523z"/>
	<path fill="#9D9FA2" d="M159.903,39.251h1.557l2.762,5.64l0.886-5.64h1.619l-1.349,8.567h-1.56l-2.757-5.619l-0.886,5.619h-1.621
		L159.903,39.251L159.903,39.251z"/>
	<path fill="#9D9FA2" d="M176.506,40.758l-1.306,1.086c-0.645-0.818-1.449-1.228-2.412-1.228c-0.813,0-1.543,0.276-2.188,0.838
		c-0.647,0.562-1.032,1.249-1.161,2.067c-0.091,0.572-0.048,1.08,0.13,1.523c0.179,0.441,0.47,0.789,0.885,1.041
		c0.413,0.254,0.896,0.381,1.445,0.381c0.469,0,0.915-0.087,1.331-0.266c0.414-0.18,0.896-0.5,1.438-0.969l0.916,1.156
		c-0.725,0.618-1.389,1.045-1.985,1.285c-0.599,0.237-1.259,0.357-1.978,0.357c-1.322,0-2.338-0.424-3.049-1.268
		c-0.713-0.845-0.963-1.928-0.755-3.248c0.135-0.854,0.443-1.611,0.932-2.276c0.488-0.663,1.126-1.197,1.902-1.604
		c0.782-0.401,1.587-0.604,2.411-0.604c0.705,0,1.356,0.146,1.961,0.444C175.625,39.782,176.119,40.208,176.506,40.758z"/>
	<path fill="#9D9FA2" d="M178.404,39.251h4.652l-0.252,1.597h-3.041l-0.244,1.549h3.042l-0.246,1.569h-3.042l-0.354,2.253h3.042
		l-0.252,1.602h-4.651L178.404,39.251z"/>
	<path fill="#9D9FA2" d="M184.812,39.251h1.92c1.241,0,2.135,0.155,2.69,0.462c0.552,0.311,0.97,0.813,1.248,1.507
		c0.284,0.694,0.349,1.507,0.201,2.436c-0.104,0.659-0.305,1.269-0.611,1.819c-0.305,0.553-0.676,1.015-1.118,1.379
		c-0.443,0.364-0.896,0.617-1.365,0.756c-0.472,0.142-1.26,0.211-2.361,0.211h-1.95L184.812,39.251L184.812,39.251z M186.174,40.822
		l-0.85,5.406h0.754c0.74,0,1.291-0.084,1.652-0.256c0.358-0.173,0.678-0.459,0.955-0.861c0.276-0.405,0.46-0.903,0.553-1.493
		c0.143-0.911,0-1.616-0.426-2.118c-0.386-0.45-1.08-0.678-2.09-0.678H186.174z"/>
	<path fill="#9D9FA2" d="M211.137,39.251h1.555l2.761,5.64l0.886-5.64h1.621l-1.348,8.567h-1.562l-2.757-5.619l-0.885,5.619h-1.621
		L211.137,39.251L211.137,39.251z"/>
	<path fill="#9D9FA2" d="M220.152,39.251h4.648l-0.251,1.597h-3.041l-0.242,1.549h3.04l-0.246,1.569h-3.04l-0.354,2.253h3.04
		l-0.252,1.602h-4.648L220.152,39.251z"/>
	<path fill="#9D9FA2" d="M226.557,39.251h4.649l-0.251,1.597h-3.039l-0.244,1.549h3.039l-0.246,1.569h-3.039l-0.354,2.253h3.039
		l-0.252,1.602h-4.65L226.557,39.251z"/>
	<path fill="#9D9FA2" d="M232.118,39.251h4.709l-0.252,1.606h-1.552l-1.097,6.961h-1.646l1.096-6.961h-1.512L232.118,39.251
		L232.118,39.251z"/>
</g>
<g>
	
		<text transform="matrix(0.9709 0 -0.0434 0.9991 20.2766 30.9668)" fill="#29EDAC" font-family="'CenturyGothic-Italic'" font-size="33.0709">GRADEMATRIX</text>
	
		<text transform="matrix(0.9709 0 -0.0434 0.9991 20.2766 30.9668)" fill="none" stroke="#29EDAC" stroke-width="1.5" font-family="'CenturyGothic-Italic'" font-size="33.0709">GRADEMATRIX</text>
</g>
</svg>
