<?xml version="1.0" encoding="utf-8"?>
<!-- Generator: Adobe Illustrator 16.0.0, SVG Export Plug-In . SVG Version: 6.00 Build 0)  -->
<!DOCTYPE svg PUBLIC "-//W3C//DTD SVG 1.1//EN" "http://www.w3.org/Graphics/SVG/1.1/DTD/svg11.dtd">
<svg version="1.1" id="Layer_1" xmlns="http://www.w3.org/2000/svg" xmlns:xlink="http://www.w3.org/1999/xlink" x="0px" y="0px"
	 width="257.566px" height="50px" viewBox="0 0 257.566 50" enable-background="new 0 0 257.566 50" xml:space="preserve">
<g>
	<path fill="#9D9FA2" d="M32.021,34.251h1.628l-0.894,5.687c-0.142,0.904-0.313,1.539-0.512,1.904
		c-0.203,0.366-0.483,0.654-0.844,0.87c-0.361,0.218-0.773,0.325-1.233,0.325c-0.938,0-1.671-0.414-2.203-1.241l1.344-1.103
		c0.213,0.296,0.402,0.494,0.568,0.595c0.165,0.101,0.332,0.151,0.502,0.151c0.174,0,0.313-0.073,0.423-0.223
		c0.107-0.146,0.201-0.472,0.28-0.974l0.942-5.993L32.021,34.251L32.021,34.251z"/>
	<path fill="#9D9FA2" d="M35.84,34.251h4.651l-0.25,1.597h-3.041l-0.245,1.549h3.041l-0.246,1.569h-3.041l-0.354,2.253h3.041
		l-0.252,1.602h-4.651L35.84,34.251z"/>
	<path fill="#9D9FA2" d="M42.246,34.251h4.651l-0.25,1.597h-3.041l-0.245,1.549h3.041l-0.246,1.569h-3.041l-0.354,2.253h3.041
		L45.55,42.82h-4.651L42.246,34.251z"/>
	<path fill="#9D9FA2" d="M53.029,34.251h1.582l1.036,5.976l2.932-5.976h1.578l0.082,8.567h-1.567l-0.061-5.409l-2.662,5.409h-1.433
		l-0.942-5.409l-1.788,5.409h-1.582L53.029,34.251z"/>
	<path fill="#9D9FA2" d="M65.715,34.251h1.646l1.929,8.567h-1.683l-0.391-1.766h-3.478l-0.97,1.766h-1.687L65.715,34.251z
		 M66.19,36.523l-1.605,2.94h2.279L66.19,36.523z"/>
	<path fill="#9D9FA2" d="M72.013,34.251h1.611l-1.348,8.567h-1.611L72.013,34.251z"/>
	<path fill="#9D9FA2" d="M75.693,34.251h1.555l2.758,5.64l0.886-5.64h1.623l-1.348,8.567h-1.561l-2.756-5.619l-0.885,5.619h-1.621
		L75.693,34.251z"/>
	<path fill="#9D9FA2" d="M104.602,34.251h1.626l-0.894,5.687c-0.142,0.904-0.315,1.539-0.515,1.904
		c-0.197,0.366-0.479,0.654-0.842,0.87c-0.361,0.218-0.774,0.325-1.233,0.325c-0.938,0-1.672-0.414-2.206-1.241l1.347-1.103
		c0.211,0.296,0.401,0.494,0.565,0.595c0.166,0.101,0.333,0.151,0.502,0.151c0.173,0,0.314-0.073,0.422-0.223
		c0.107-0.146,0.203-0.472,0.282-0.974l0.942-5.992H104.602z"/>
	<path fill="#9D9FA2" d="M108.419,34.251h4.65l-0.25,1.597h-3.04l-0.245,1.549h3.04l-0.246,1.569h-3.04l-0.354,2.253h3.04
		l-0.252,1.602h-4.65L108.419,34.251z"/>
	<path fill="#9D9FA2" d="M114.827,34.251h4.651l-0.25,1.597h-3.041l-0.245,1.549h3.041l-0.246,1.569h-3.041l-0.354,2.253h3.041
		l-0.252,1.602h-4.651L114.827,34.251z"/>
	<path fill="#9D9FA2" d="M127.383,34.251h1.646l1.928,8.567h-1.685l-0.39-1.766h-3.478l-0.973,1.766h-1.685L127.383,34.251z
		 M127.856,36.523l-1.606,2.94h2.28L127.856,36.523z"/>
	<path fill="#9D9FA2" d="M133.801,34.251h1.922c1.239,0,2.137,0.155,2.689,0.462c0.551,0.311,0.969,0.813,1.25,1.507
		c0.282,0.694,0.348,1.507,0.201,2.435c-0.105,0.66-0.307,1.269-0.612,1.82c-0.304,0.553-0.677,1.014-1.119,1.379
		c-0.442,0.364-0.896,0.617-1.364,0.756c-0.47,0.141-1.26,0.211-2.362,0.211h-1.951L133.801,34.251L133.801,34.251z M135.168,35.822
		l-0.85,5.406h0.752c0.738,0,1.289-0.084,1.652-0.256c0.359-0.172,0.678-0.459,0.955-0.861c0.277-0.405,0.46-0.903,0.553-1.493
		c0.143-0.911,0-1.616-0.424-2.118c-0.385-0.45-1.084-0.678-2.092-0.678H135.168z"/>
	<path fill="#9D9FA2" d="M141.694,34.251h1.667l1.189,6.086l3.131-6.086h1.665l-4.417,8.567h-1.563L141.694,34.251z"/>
	<path fill="#9D9FA2" d="M153.482,34.251h1.646l1.93,8.567h-1.688l-0.387-1.766h-3.478l-0.972,1.766h-1.687L153.482,34.251z
		 M153.958,36.523l-1.604,2.94h2.277L153.958,36.523z"/>
	<path fill="#9D9FA2" d="M159.903,34.251h1.557l2.761,5.64l0.886-5.64h1.619l-1.348,8.567h-1.56l-2.757-5.619l-0.885,5.619h-1.622
		L159.903,34.251L159.903,34.251z"/>
	<path fill="#9D9FA2" d="M176.506,35.758l-1.306,1.086c-0.645-0.818-1.449-1.228-2.412-1.228c-0.813,0-1.543,0.276-2.189,0.838
		c-0.647,0.562-1.032,1.249-1.161,2.067c-0.091,0.573-0.048,1.08,0.13,1.524c0.179,0.442,0.47,0.789,0.885,1.041
		c0.413,0.254,0.895,0.381,1.445,0.381c0.469,0,0.915-0.087,1.331-0.266c0.414-0.179,0.897-0.5,1.438-0.968l0.916,1.156
		c-0.725,0.618-1.389,1.045-1.986,1.285c-0.598,0.237-1.258,0.357-1.977,0.357c-1.322,0-2.338-0.424-3.049-1.268
		c-0.713-0.844-0.963-1.927-0.755-3.248c0.135-0.854,0.444-1.611,0.932-2.276c0.488-0.663,1.126-1.197,1.902-1.603
		c0.782-0.402,1.587-0.604,2.411-0.604c0.705,0,1.357,0.146,1.961,0.445C175.625,34.782,176.119,35.208,176.506,35.758z"/>
	<path fill="#9D9FA2" d="M178.404,34.251h4.652l-0.252,1.597h-3.041l-0.244,1.549h3.042l-0.246,1.569h-3.042l-0.354,2.253h3.042
		l-0.252,1.602h-4.652L178.404,34.251z"/>
	<path fill="#9D9FA2" d="M184.812,34.251h1.92c1.241,0,2.135,0.155,2.691,0.462c0.551,0.311,0.969,0.813,1.248,1.507
		c0.284,0.694,0.348,1.507,0.201,2.435c-0.104,0.66-0.305,1.269-0.611,1.82c-0.305,0.553-0.676,1.014-1.119,1.379
		c-0.443,0.364-0.896,0.617-1.365,0.756c-0.472,0.141-1.26,0.211-2.361,0.211h-1.95L184.812,34.251L184.812,34.251z M186.174,35.822
		l-0.85,5.406h0.754c0.74,0,1.291-0.084,1.652-0.256c0.359-0.172,0.678-0.459,0.955-0.861c0.277-0.405,0.46-0.903,0.553-1.493
		c0.143-0.911,0-1.616-0.426-2.118c-0.385-0.45-1.08-0.678-2.09-0.678H186.174z"/>
	<path fill="#9D9FA2" d="M211.137,34.251h1.555l2.761,5.64l0.886-5.64h1.621l-1.348,8.567h-1.561l-2.757-5.619l-0.885,5.619h-1.621
		L211.137,34.251L211.137,34.251z"/>
	<path fill="#9D9FA2" d="M220.152,34.251h4.649l-0.251,1.597h-3.041l-0.243,1.549h3.04l-0.246,1.569h-3.04l-0.354,2.253h3.04
		l-0.252,1.602h-4.649L220.152,34.251z"/>
	<path fill="#9D9FA2" d="M226.557,34.251h4.65l-0.251,1.597h-3.039l-0.244,1.549h3.039l-0.246,1.569h-3.039l-0.354,2.253h3.039
		l-0.252,1.602h-4.65L226.557,34.251z"/>
	<path fill="#9D9FA2" d="M232.118,34.251h4.709l-0.252,1.606h-1.552l-1.096,6.961h-1.646l1.096-6.961h-1.512L232.118,34.251
		L232.118,34.251z"/>
</g>
<g>
	
		<text transform="matrix(1.17 0 -0.0523 0.9986 32.6687 26.7783)" fill="#29EDAC" stroke="#29EDAC" stroke-width="1.5" font-family="'CenturyGothic-Italic'" font-size="24.9602">GRADEMATRIX</text>
</g>
<text transform="matrix(1 0 0 1 14.2087 36.251)" fill="#FFFFFF" stroke="#FFFFFF" stroke-width="0.5" font-family="'MonotypeCorsiva'" font-size="48.4228">[</text>
<text transform="matrix(-1 0 0 -1 255.5662 12.251)" fill="#FFFFFF" stroke="#FFFFFF" stroke-width="0.5" font-family="'MonotypeCorsiva'" font-size="48.4228">[</text>
</svg>
