<?xml version="1.0" encoding="utf-8"?>
<!-- Generator: Adobe Illustrator 16.0.0, SVG Export Plug-In . SVG Version: 6.00 Build 0)  -->
<!DOCTYPE svg PUBLIC "-//W3C//DTD SVG 1.1//EN" "http://www.w3.org/Graphics/SVG/1.1/DTD/svg11.dtd">
<svg version="1.1" xmlns="http://www.w3.org/2000/svg" xmlns:xlink="http://www.w3.org/1999/xlink" x="0px" y="0px"
	 width="257.567px" height="50px" viewBox="0 0 257.567 50" enable-background="new 0 0 257.567 50" xml:space="preserve">
<g id="Layer_2" display="none">
	<rect x="-98.586" y="-64.5" display="inline" fill="#2F4053" stroke="#FFFFFF" stroke-width="4" width="469" height="129"/>
</g>
<g id="Layer_3">
</g>
<g id="Layer_1">
	<g opacity="0.99">
		<g>
			<g>
				<path fill="#9D9FA2" d="M84.859,39.023h1.158v4.664c0,0.742-0.051,1.263-0.152,1.563c-0.102,0.3-0.27,0.537-0.503,0.714
					c-0.233,0.178-0.513,0.266-0.84,0.266c-0.667,0-1.236-0.339-1.705-1.018l0.832-0.903c0.184,0.242,0.341,0.404,0.47,0.487
					s0.254,0.124,0.375,0.124c0.124,0,0.215-0.061,0.276-0.182c0.06-0.121,0.09-0.387,0.09-0.798V39.023z"/>
				<path fill="#9D9FA2" d="M87.574,39.023h3.307v1.31h-2.162v1.271h2.162v1.286h-2.162v1.849h2.162v1.314h-3.307V39.023z"/>
				<path fill="#9D9FA2" d="M92.129,39.023h3.307v1.31h-2.162v1.271h2.162v1.286h-2.162v1.849h2.162v1.314h-3.307V39.023z"/>
				<path fill="#9D9FA2" d="M99.796,39.023h1.124l1.404,4.902l1.417-4.902h1.123l1.016,7.029h-1.115l-0.649-4.439l-1.287,4.439
					h-1.017l-1.276-4.439l-0.665,4.439h-1.125L99.796,39.023z"/>
				<path fill="#9D9FA2" d="M108.816,39.023h1.17l2.33,7.029h-1.198l-0.475-1.448h-2.472l-0.493,1.448h-1.198L108.816,39.023z
					 M109.408,40.887l-0.813,2.413h1.621L109.408,40.887z"/>
				<path fill="#9D9FA2" d="M113.294,39.023h1.146v7.029h-1.146V39.023z"/>
				<path fill="#9D9FA2" d="M115.91,39.023h1.106l2.592,4.626v-4.626h1.153v7.029h-1.109l-2.589-4.611v4.611h-1.153V39.023z"/>
				<path fill="#9D9FA2" d="M136.465,39.023h1.157v4.664c0,0.742-0.051,1.263-0.152,1.563s-0.269,0.537-0.502,0.714
					c-0.233,0.178-0.514,0.266-0.841,0.266c-0.667,0-1.235-0.339-1.705-1.018l0.832-0.903c0.185,0.242,0.341,0.404,0.47,0.487
					s0.254,0.124,0.375,0.124c0.123,0,0.216-0.061,0.275-0.182c0.061-0.121,0.091-0.387,0.091-0.798V39.023z"/>
				<path fill="#9D9FA2" d="M139.179,39.023h3.307v1.31h-2.162v1.271h2.162v1.286h-2.162v1.849h2.162v1.314h-3.307V39.023z"/>
				<path fill="#9D9FA2" d="M143.735,39.023h3.307v1.31h-2.162v1.271h2.162v1.286h-2.162v1.849h2.162v1.314h-3.307V39.023z"/>
				<path fill="#9D9FA2" d="M152.663,39.023h1.17l2.33,7.029h-1.198l-0.475-1.448h-2.472l-0.493,1.448h-1.198L152.663,39.023z
					 M153.254,40.887l-0.813,2.413h1.621L153.254,40.887z"/>
				<path fill="#9D9FA2" d="M157.227,39.023h1.366c0.881,0,1.535,0.127,1.963,0.38s0.78,0.665,1.058,1.235s0.415,1.236,0.415,1.997
					c0,0.542-0.077,1.04-0.232,1.493c-0.154,0.454-0.368,0.831-0.642,1.131c-0.273,0.299-0.568,0.506-0.887,0.621
					c-0.318,0.114-0.87,0.172-1.654,0.172h-1.387V39.023z M158.372,40.313v4.435h0.536c0.526,0,0.909-0.07,1.146-0.21
					c0.237-0.141,0.432-0.377,0.583-0.708c0.151-0.332,0.227-0.74,0.227-1.225c0-0.747-0.18-1.325-0.54-1.737
					c-0.323-0.369-0.844-0.555-1.561-0.555H158.372z"/>
				<path fill="#9D9FA2" d="M162.838,39.023h1.186l1.524,4.993l1.547-4.993h1.185l-2.184,7.029h-1.111L162.838,39.023z"/>
				<path fill="#9D9FA2" d="M171.22,39.023h1.17l2.33,7.029h-1.198l-0.475-1.448h-2.472l-0.493,1.448h-1.198L171.22,39.023z
					 M171.812,40.887L171,43.3h1.621L171.812,40.887z"/>
				<path fill="#9D9FA2" d="M175.786,39.023h1.106l2.592,4.626v-4.626h1.153v7.029h-1.109l-2.589-4.611v4.611h-1.153V39.023z"/>
				<path fill="#9D9FA2" d="M187.758,40.259l-0.807,0.892c-0.549-0.672-1.166-1.009-1.852-1.009c-0.579,0-1.067,0.229-1.463,0.688
					c-0.396,0.46-0.595,1.025-0.595,1.698c0,0.469,0.087,0.885,0.263,1.249c0.176,0.363,0.424,0.648,0.745,0.855
					c0.321,0.208,0.678,0.312,1.07,0.312c0.334,0,0.641-0.072,0.917-0.218c0.277-0.146,0.582-0.409,0.914-0.792l0.781,0.947
					c-0.447,0.507-0.87,0.857-1.269,1.054c-0.397,0.196-0.853,0.294-1.363,0.294c-0.941,0-1.712-0.347-2.313-1.039
					c-0.6-0.693-0.899-1.581-0.899-2.664c0-0.701,0.137-1.324,0.409-1.869c0.273-0.544,0.665-0.982,1.174-1.313
					c0.51-0.331,1.059-0.497,1.646-0.497c0.5,0,0.981,0.122,1.444,0.367C187.024,39.459,187.423,39.808,187.758,40.259z"/>
				<path fill="#9D9FA2" d="M188.94,39.023h3.307v1.31h-2.162v1.271h2.162v1.286h-2.162v1.849h2.162v1.314h-3.307V39.023z"/>
				<path fill="#9D9FA2" d="M193.496,39.023h1.366c0.881,0,1.535,0.127,1.963,0.38s0.78,0.665,1.058,1.235s0.415,1.236,0.415,1.997
					c0,0.542-0.077,1.04-0.232,1.493c-0.154,0.454-0.368,0.831-0.642,1.131c-0.273,0.299-0.568,0.506-0.887,0.621
					c-0.318,0.114-0.87,0.172-1.654,0.172h-1.387V39.023z M194.64,40.313v4.435h0.536c0.526,0,0.909-0.07,1.146-0.21
					c0.237-0.141,0.432-0.377,0.583-0.708c0.151-0.332,0.227-0.74,0.227-1.225c0-0.747-0.18-1.325-0.54-1.737
					c-0.323-0.369-0.844-0.555-1.561-0.555H194.64z"/>
				<path fill="#9D9FA2" d="M212.214,39.023h1.106l2.592,4.626v-4.626h1.153v7.029h-1.109l-2.589-4.611v4.611h-1.153V39.023z"/>
				<path fill="#9D9FA2" d="M218.623,39.023h3.307v1.31h-2.162v1.271h2.162v1.286h-2.162v1.849h2.162v1.314h-3.307V39.023z"/>
				<path fill="#9D9FA2" d="M223.178,39.023h3.307v1.31h-2.162v1.271h2.162v1.286h-2.162v1.849h2.162v1.314h-3.307V39.023z"/>
				<path fill="#9D9FA2" d="M227.131,39.023h3.349v1.319h-1.104v5.71h-1.17v-5.71h-1.075V39.023z"/>
			</g>
			<g>
				<path fill="#7AC478" stroke="#FFFFFF" stroke-width="2" d="M103.227,32.044H83.708V7.073h18.854v1.824H85.683v9.234H101.5v1.824
					H85.683v10.26h17.544V32.044z"/>
				<path fill="#7AC478" stroke="#FFFFFF" stroke-width="2" d="M119.434,6.618c1.842,0,3.547,0.306,5.109,0.91
					c1.562,0.609,2.908,1.476,4.032,2.602c1.127,1.124,2.008,2.479,2.643,4.058c0.633,1.581,0.95,3.345,0.95,5.289
					c0,2.083-0.356,3.962-1.061,5.633c-0.709,1.674-1.705,3.087-2.988,4.241l4.27,3.102c-0.246,0.29-0.456,0.532-0.628,0.73
					c-0.174,0.197-0.35,0.401-0.531,0.614l-4.59-3.305c-1.003,0.653-2.109,1.151-3.32,1.492c-1.207,0.342-2.503,0.514-3.886,0.514
					c-1.874,0-3.595-0.316-5.156-0.945c-1.564-0.633-2.909-1.517-4.036-2.657c-1.125-1.141-2.002-2.508-2.627-4.104
					c-0.625-1.597-0.937-3.367-0.937-5.314c0-1.958,0.317-3.73,0.95-5.311c0.633-1.581,1.518-2.931,2.651-4.049
					c1.136-1.117,2.48-1.979,4.036-2.589C115.87,6.924,117.575,6.618,119.434,6.618z M119.41,30.674
					c1.052,0,2.048-0.118,2.986-0.353c0.938-0.237,1.81-0.573,2.614-1.016l-2.985-2.166c0.279-0.304,0.498-0.551,0.655-0.741
					c0.154-0.19,0.342-0.399,0.554-0.626l3.356,2.462c1.103-0.958,1.963-2.17,2.579-3.638c0.616-1.467,0.924-3.173,0.924-5.12
					c0-1.793-0.267-3.374-0.801-4.74c-0.535-1.369-1.274-2.521-2.22-3.455c-0.948-0.935-2.065-1.642-3.357-2.12
					c-1.292-0.48-2.701-0.719-4.231-0.719c-1.563,0-2.998,0.244-4.306,0.728c-1.309,0.487-2.439,1.198-3.394,2.133
					c-0.953,0.937-1.698,2.087-2.233,3.455c-0.534,1.368-0.802,2.942-0.802,4.719c0,1.78,0.262,3.364,0.791,4.755
					c0.525,1.391,1.262,2.566,2.207,3.523c0.946,0.958,2.072,1.684,3.381,2.177C116.435,30.427,117.864,30.674,119.41,30.674z"/>
				<path fill="#7AC478" stroke="#FFFFFF" stroke-width="2" d="M146.917,32.498c-1.611,0-2.988-0.155-4.131-0.469
					c-1.144-0.31-2.096-0.731-2.852-1.264s-1.356-1.156-1.802-1.87c-0.444-0.714-0.782-1.476-1.012-2.28
					c-0.23-0.805-0.374-1.643-0.432-2.511c-0.058-0.866-0.086-1.708-0.086-2.527V7.073h1.975v14.435
					c0,1.898,0.185,3.446,0.555,4.641c0.371,1.191,0.913,2.124,1.63,2.792c0.716,0.669,1.586,1.127,2.614,1.367
					c1.028,0.243,2.209,0.366,3.54,0.366c1.35,0,2.546-0.123,3.591-0.366c1.044-0.24,1.917-0.7,2.616-1.378
					c0.699-0.677,1.229-1.608,1.592-2.794c0.36-1.185,0.543-2.729,0.543-4.628V7.073h1.976v14.504c0,1.718-0.158,3.253-0.471,4.604
					c-0.312,1.354-0.855,2.499-1.627,3.434c-0.773,0.933-1.828,1.649-3.158,2.143C150.645,32.25,148.958,32.498,146.917,32.498z"/>
				<path fill="#7AC478" stroke="#FFFFFF" stroke-width="2" d="M165.839,32.044h-1.973V7.073h1.973V32.044z"/>
				<path fill="#7AC478" stroke="#FFFFFF" stroke-width="2" d="M190.856,32.044H170.08v-2.419l18.236-20.728h-16.633V7.073h18.656
					v2.439l-18.26,20.703h18.776V32.044z"/>
				<path fill="#7AC478" stroke="#FFFFFF" stroke-width="2" d="M215.078,32.044h-20.775v-2.419l18.235-20.728h-16.632V7.073h18.655
					v2.439l-18.26,20.703h18.776V32.044z"/>
				<path fill="#7AC478" stroke="#FFFFFF" stroke-width="2" d="M241.717,7.073l-10.559,14.252v10.719h-1.975V21.325L218.522,7.073
					h2.322l9.325,12.338l9.255-12.338H241.717z"/>
			</g>
		</g>
	</g>
	<g opacity="0.99">
		<line fill="none" stroke="#01AF93" stroke-width="7" x1="17.385" y1="25.08" x2="36.76" y2="25.08"/>
		<path fill="none" stroke="#01AF93" stroke-width="7" d="M45.217,41.193c-2.727,1.565-5.886,2.465-9.256,2.465
			c-10.258,0-18.576-8.318-18.576-18.578c0-10.262,8.318-18.58,18.576-18.58c3.37,0,6.533,0.899,9.262,2.469"/>
		<g>
			<circle fill="none" stroke="#01AF93" stroke-width="7" cx="56.512" cy="25.079" r="18.579"/>
			<path fill="none" stroke="#01AF93" stroke-width="7" d="M61.045,30.286l13.016,13.178L61.045,30.286z"/>
		</g>
	</g>
</g>
</svg>
