<?xml version="1.0" encoding="utf-8"?>
<!-- Generator: Adobe Illustrator 16.0.0, SVG Export Plug-In . SVG Version: 6.00 Build 0)  -->
<!DOCTYPE svg PUBLIC "-//W3C//DTD SVG 1.1//EN" "http://www.w3.org/Graphics/SVG/1.1/DTD/svg11.dtd">
<svg version="1.1" id="Layer_1" xmlns="http://www.w3.org/2000/svg" xmlns:xlink="http://www.w3.org/1999/xlink" x="0px" y="0px"
	 width="257.566px" height="50px" viewBox="0 0 257.566 50" enable-background="new 0 0 257.566 50" xml:space="preserve">
<g>
	<path fill="#9D9FA2" d="M31.347,38.251h1.628v5.686c0,0.905-0.07,1.539-0.212,1.905c-0.145,0.366-0.38,0.654-0.708,0.87
		c-0.327,0.218-0.721,0.325-1.181,0.325c-0.938,0-1.738-0.414-2.398-1.241l1.17-1.103c0.26,0.296,0.48,0.494,0.662,0.595
		c0.181,0.101,0.357,0.151,0.528,0.151c0.174,0,0.301-0.073,0.387-0.222c0.084-0.147,0.126-0.472,0.126-0.974v-5.993H31.347z"/>
	<path fill="#9D9FA2" d="M35.166,38.251h4.651v1.597h-3.041v1.549h3.041v1.569h-3.041v2.253h3.041v1.602h-4.651V38.251z"/>
	<path fill="#9D9FA2" d="M41.572,38.251h4.651v1.597h-3.041v1.549h3.041v1.569h-3.041v2.253h3.041v1.602h-4.651V38.251z"/>
	<path fill="#9D9FA2" d="M52.355,38.251h1.582l1.975,5.976l1.993-5.976h1.578l1.43,8.568h-1.568l-0.912-5.41l-1.81,5.41H55.19
		l-1.793-5.41l-0.936,5.41h-1.582L52.355,38.251z"/>
	<path fill="#9D9FA2" d="M65.041,38.251h1.645l3.277,8.568H68.28l-0.669-1.766h-3.477l-0.692,1.766h-1.686L65.041,38.251z
		 M65.874,40.523l-1.144,2.941h2.28L65.874,40.523z"/>
	<path fill="#9D9FA2" d="M71.34,38.251h1.611v8.568H71.34V38.251z"/>
	<path fill="#9D9FA2" d="M75.019,38.251h1.555l3.645,5.639v-5.639h1.623v8.568h-1.561l-3.641-5.62v5.62h-1.621V38.251z"/>
	<path fill="#9D9FA2" d="M103.928,38.251h1.626v5.686c0,0.905-0.072,1.539-0.214,1.905c-0.14,0.366-0.377,0.654-0.706,0.87
		c-0.328,0.218-0.723,0.325-1.182,0.325c-0.939,0-1.738-0.414-2.4-1.241l1.172-1.103c0.258,0.296,0.479,0.494,0.66,0.595
		s0.358,0.151,0.527,0.151c0.173,0,0.303-0.073,0.387-0.222c0.084-0.147,0.128-0.472,0.128-0.974V38.251z"/>
	<path fill="#9D9FA2" d="M107.745,38.251h4.65v1.597h-3.04v1.549h3.04v1.569h-3.04v2.253h3.04v1.602h-4.65V38.251z"/>
	<path fill="#9D9FA2" d="M114.153,38.251h4.651v1.597h-3.041v1.549h3.041v1.569h-3.041v2.253h3.041v1.602h-4.651V38.251z"/>
	<path fill="#9D9FA2" d="M126.709,38.251h1.646l3.276,8.568h-1.685l-0.668-1.766h-3.477l-0.695,1.766h-1.684L126.709,38.251z
		 M127.54,40.523l-1.145,2.941h2.281L127.54,40.523z"/>
	<path fill="#9D9FA2" d="M133.127,38.251h1.922c1.239,0,2.16,0.155,2.762,0.462c0.6,0.31,1.096,0.812,1.487,1.507
		c0.391,0.694,0.583,1.507,0.583,2.434c0,0.661-0.107,1.269-0.326,1.82c-0.216,0.554-0.518,1.014-0.902,1.379
		s-0.799,0.618-1.247,0.757c-0.446,0.14-1.225,0.21-2.327,0.21h-1.951V38.251z M134.74,39.822v5.407h0.752
		c0.739,0,1.277-0.085,1.612-0.256c0.334-0.172,0.607-0.459,0.82-0.862c0.212-0.405,0.319-0.903,0.319-1.493
		c0-0.911-0.253-1.616-0.759-2.118c-0.455-0.45-1.188-0.678-2.196-0.678H134.74z"/>
	<path fill="#9D9FA2" d="M141.02,38.251h1.667l2.145,6.086l2.176-6.086h1.665l-3.07,8.568h-1.563L141.02,38.251z"/>
	<path fill="#9D9FA2" d="M152.808,38.251h1.646l3.277,8.568h-1.687l-0.665-1.766h-3.478l-0.693,1.766h-1.687L152.808,38.251z
		 M153.641,40.523l-1.141,2.941h2.277L153.641,40.523z"/>
	<path fill="#9D9FA2" d="M159.229,38.251h1.557l3.646,5.639v-5.639h1.62v8.568h-1.56l-3.642-5.62v5.62h-1.622V38.251z"/>
	<path fill="#9D9FA2" d="M176.069,39.758l-1.136,1.086c-0.773-0.818-1.642-1.228-2.605-1.228c-0.813,0-1.499,0.277-2.058,0.838
		c-0.558,0.561-0.836,1.249-0.836,2.068c0,0.573,0.122,1.08,0.37,1.524c0.247,0.442,0.595,0.789,1.049,1.041
		c0.451,0.254,0.953,0.381,1.504,0.381c0.469,0,0.901-0.087,1.29-0.266c0.388-0.178,0.819-0.5,1.285-0.967l1.098,1.155
		c-0.627,0.619-1.225,1.046-1.784,1.286c-0.56,0.237-1.2,0.357-1.918,0.357c-1.322,0-2.407-0.423-3.251-1.267
		c-0.845-0.844-1.265-1.927-1.265-3.248c0-0.854,0.19-1.612,0.574-2.277c0.383-0.663,0.936-1.197,1.651-1.602
		c0.718-0.402,1.49-0.604,2.315-0.604c0.704,0,1.38,0.147,2.031,0.446C175.034,38.782,175.596,39.208,176.069,39.758z"/>
	<path fill="#9D9FA2" d="M177.73,38.251h4.653v1.597h-3.042v1.549h3.042v1.569h-3.042v2.253h3.042v1.602h-4.653V38.251z"/>
	<path fill="#9D9FA2" d="M184.138,38.251h1.92c1.242,0,2.16,0.155,2.765,0.462c0.6,0.31,1.095,0.812,1.485,1.507
		c0.393,0.694,0.583,1.507,0.583,2.434c0,0.661-0.106,1.269-0.325,1.82c-0.217,0.554-0.517,1.014-0.902,1.379
		s-0.8,0.618-1.247,0.757c-0.449,0.14-1.226,0.21-2.327,0.21h-1.951V38.251z M185.747,39.822v5.407h0.754
		c0.74,0,1.278-0.085,1.611-0.256c0.334-0.172,0.607-0.459,0.819-0.862c0.213-0.405,0.32-0.903,0.32-1.493
		c0-0.911-0.254-1.616-0.761-2.118c-0.454-0.45-1.185-0.678-2.195-0.678H185.747z"/>
	<path fill="#9D9FA2" d="M210.464,38.251h1.554l3.647,5.639v-5.639h1.621v8.568h-1.561l-3.641-5.62v5.62h-1.621V38.251z"/>
	<path fill="#9D9FA2" d="M219.478,38.251h4.65v1.597h-3.04v1.549h3.04v1.569h-3.04v2.253h3.04v1.602h-4.65V38.251z"/>
	<path fill="#9D9FA2" d="M225.884,38.251h4.65v1.597h-3.039v1.549h3.039v1.569h-3.039v2.253h3.039v1.602h-4.65V38.251z"/>
	<path fill="#9D9FA2" d="M231.444,38.251h4.709v1.607h-1.552v6.961h-1.646v-6.961h-1.512V38.251z"/>
</g>
<g id="Layer_1_1_">
	<g opacity="0.99">
		<g>
			<g>
				<path display="none" fill="#7AC478" stroke="#019FA4" stroke-width="2" d="M78.471,29.659H61.235V7.609h16.649v1.61H62.979
					v8.154h13.968v1.611H62.979v9.061h15.492V29.659z"/>
				<path display="none" fill="#7AC478" stroke="#019FA4" stroke-width="2" d="M92.783,7.207c1.626,0,3.132,0.27,4.512,0.803
					c1.379,0.539,2.569,1.304,3.561,2.298c0.995,0.993,1.773,2.189,2.333,3.584c0.559,1.396,0.839,2.954,0.839,4.67
					c0,1.839-0.315,3.498-0.938,4.975c-0.626,1.479-1.507,2.726-2.639,3.744l3.77,2.741c-0.216,0.256-0.402,0.469-0.554,0.644
					c-0.153,0.174-0.308,0.354-0.469,0.541l-4.053-2.918c-0.887,0.576-1.863,1.016-2.933,1.317
					c-1.065,0.302-2.209,0.454-3.431,0.454c-1.655,0-3.175-0.279-4.553-0.834c-1.38-0.56-2.568-1.339-3.563-2.346
					c-0.993-1.008-1.769-2.215-2.321-3.625s-0.828-2.974-0.828-4.692c0-1.729,0.281-3.294,0.84-4.69
					c0.558-1.396,1.339-2.588,2.34-3.575c1.004-0.987,2.19-1.748,3.564-2.287C89.636,7.477,91.142,7.207,92.783,7.207z
					 M92.762,28.451c0.929,0,1.809-0.105,2.637-0.313c0.828-0.208,1.599-0.505,2.309-0.897l-2.636-1.912
					c0.246-0.269,0.439-0.486,0.579-0.654c0.136-0.168,0.301-0.352,0.489-0.553l2.963,2.176c0.974-0.848,1.733-1.917,2.278-3.214
					c0.545-1.295,0.815-2.802,0.815-4.521c0-1.583-0.236-2.98-0.707-4.186c-0.474-1.209-1.126-2.226-1.961-3.05
					c-0.836-0.826-1.823-1.451-2.964-1.873c-1.141-0.423-2.385-0.635-3.737-0.635c-1.38,0-2.647,0.215-3.802,0.643
					c-1.155,0.43-2.154,1.057-2.996,1.883c-0.842,0.827-1.5,1.843-1.973,3.051c-0.472,1.208-0.708,2.599-0.708,4.167
					c0,1.572,0.232,2.971,0.699,4.199c0.462,1.228,1.114,2.266,1.948,3.111c0.835,0.846,1.829,1.486,2.986,1.923
					C90.135,28.231,91.397,28.451,92.762,28.451z"/>
				<path fill="#7AC478" stroke="#019FA4" stroke-width="2" d="M116.199,30.061c-1.422,0-2.639-0.137-3.647-0.413
					c-1.011-0.275-1.852-0.647-2.52-1.117c-0.667-0.472-1.197-1.02-1.591-1.65c-0.393-0.63-0.69-1.306-0.894-2.015
					c-0.203-0.709-0.33-1.45-0.381-2.217c-0.051-0.764-0.076-1.508-0.076-2.23V7.609h1.745v12.746c0,1.677,0.162,3.043,0.489,4.098
					c0.326,1.051,0.807,1.876,1.44,2.466c0.632,0.591,1.4,0.995,2.308,1.207c0.908,0.213,1.95,0.324,3.125,0.324
					c1.192,0,2.248-0.111,3.172-0.324c0.921-0.212,1.692-0.618,2.31-1.218c0.617-0.597,1.084-1.419,1.405-2.467
					c0.318-1.045,0.48-2.409,0.48-4.086V7.609h1.744v12.808c0,1.516-0.139,2.873-0.416,4.066c-0.274,1.195-0.754,2.206-1.437,3.032
					c-0.683,0.822-1.614,1.455-2.79,1.892C119.491,29.841,118.002,30.061,116.199,30.061z"/>
				<path fill="#7AC478" stroke="#019FA4" stroke-width="2" d="M132.761,29.659h-1.741V7.609h1.741V29.659z"/>
				<path fill="#7AC478" stroke="#019FA4" stroke-width="2" d="M155.853,29.659h-18.347v-2.136L153.61,9.219h-14.688v-1.61h16.475
					v2.154l-16.125,18.282h16.581V29.659L155.853,29.659z"/>
				<path fill="#7AC478" stroke="#019FA4" stroke-width="2" d="M177.242,29.659h-18.346v-2.136l16.104-18.304h-14.689v-1.61h16.474
					v2.154L160.66,28.045h16.581L177.242,29.659L177.242,29.659z"/>
				<path fill="#7AC478" stroke="#019FA4" stroke-width="2" d="M200.884,5.785l-9.442,14.41l-3.304,9.464h-5.413l3.658-9.313
					l-6.101-12.737h2.053l6.569,7.718l3.638-6.989L200.884,5.785z"/>
			</g>
		</g>
	</g>
	<g opacity="0.99">
		<line fill="none" stroke="#00A28B" stroke-width="4" x1="65.918" y1="17.787" x2="78.432" y2="17.787"/>
		<path fill="none" stroke="#00A28B" stroke-width="4" d="M83.895,28.193c-1.76,1.011-3.801,1.592-5.979,1.592
			c-6.625,0-11.999-5.373-11.999-11.999c0-6.628,5.374-12.001,11.999-12.001c2.178,0,4.22,0.581,5.983,1.595"/>
		<g>
			<circle fill="none" stroke="#019FA4" stroke-width="4" cx="91.191" cy="17.785" r="12"/>
			<path fill="none" stroke="#019FA4" stroke-width="4" d="M94.119,21.149l8.407,8.51L94.119,21.149z"/>
		</g>
	</g>
</g>
</svg>
