<?xml version="1.0" encoding="utf-8"?>
<!-- Generator: Adobe Illustrator 16.0.0, SVG Export Plug-In . SVG Version: 6.00 Build 0)  -->
<!DOCTYPE svg PUBLIC "-//W3C//DTD SVG 1.1//EN" "http://www.w3.org/Graphics/SVG/1.1/DTD/svg11.dtd">
<svg version="1.1" xmlns="http://www.w3.org/2000/svg" xmlns:xlink="http://www.w3.org/1999/xlink" x="0px" y="0px"
	 width="454.506px" height="90.128px" viewBox="0 0 454.506 90.128" enable-background="new 0 0 454.506 90.128"
	 xml:space="preserve">
<g id="Layer_2" display="none">
	<rect x="-10.313" y="-16.189" display="inline" fill="#2F4053" stroke="#FFFFFF" stroke-width="4" width="469" height="129"/>
</g>
<g id="Layer_3">
</g>
<g id="Layer_1">
	<g>
		<g>
			<g>
				<path fill="#7AC478" stroke="#FFFFFF" stroke-width="4" d="M178.705,58.778h-38.222V9.885H177.4v3.572h-33.051V31.54h30.974
					v3.572h-30.974v20.094h34.356V58.778z"/>
				<path fill="#7AC478" stroke="#FFFFFF" stroke-width="4" d="M210.442,8.992c3.607,0,6.941,0.597,10.002,1.786
					c3.061,1.191,5.693,2.888,7.9,5.09c2.206,2.203,3.93,4.854,5.17,7.947c1.24,3.098,1.86,6.551,1.86,10.359
					c0,4.078-0.692,7.756-2.077,11.029c-1.386,3.275-3.334,6.043-5.848,8.305l8.359,6.072c-0.482,0.566-0.894,1.043-1.231,1.43
					c-0.339,0.387-0.685,0.787-1.039,1.205l-8.987-6.475c-1.966,1.281-4.132,2.256-6.5,2.926c-2.367,0.67-4.904,1.004-7.609,1.004
					c-3.673,0-7.039-0.619-10.1-1.854s-5.694-2.969-7.9-5.201c-2.207-2.232-3.922-4.912-5.146-8.037
					c-1.225-3.125-1.836-6.594-1.836-10.404c0-3.84,0.62-7.307,1.86-10.402c1.24-3.096,2.972-5.738,5.195-7.926
					c2.222-2.188,4.856-3.877,7.9-5.068C203.46,9.588,206.802,8.992,210.442,8.992z M210.394,56.098c2.061,0,4.011-0.23,5.847-0.691
					c1.837-0.461,3.544-1.123,5.122-1.988l-5.847-4.24c0.548-0.596,0.974-1.08,1.28-1.451c0.306-0.373,0.668-0.781,1.088-1.229
					l6.57,4.822c2.158-1.875,3.842-4.248,5.051-7.121c1.207-2.873,1.812-6.215,1.812-10.025c0-3.512-0.524-6.607-1.57-9.287
					c-1.048-2.68-2.497-4.934-4.349-6.764c-1.854-1.832-4.043-3.215-6.572-4.153c-2.529-0.938-5.291-1.406-8.287-1.406
					c-3.061,0-5.871,0.477-8.432,1.429c-2.561,0.953-4.775,2.344-6.645,4.176c-1.868,1.83-3.326,4.084-4.373,6.764
					c-1.047,2.68-1.57,5.76-1.57,9.242s0.515,6.586,1.546,9.311c1.031,2.723,2.472,5.023,4.324,6.898s4.059,3.297,6.62,4.264
					C204.571,55.616,207.365,56.098,210.394,56.098z"/>
				<path fill="#7AC478" stroke="#FFFFFF" stroke-width="4" d="M264.261,59.67c-3.157,0-5.854-0.305-8.094-0.916
					c-2.238-0.609-4.1-1.436-5.58-2.477c-1.482-1.043-2.658-2.264-3.527-3.662c-0.87-1.398-1.531-2.887-1.982-4.465
					s-0.732-3.215-0.845-4.912c-0.113-1.697-0.169-3.35-0.169-4.957V9.885h3.865v28.264c0,3.721,0.362,6.75,1.088,9.086
					c0.725,2.338,1.787,4.16,3.188,5.471c1.401,1.309,3.108,2.203,5.122,2.678c2.013,0.477,4.324,0.715,6.934,0.715
					c2.642,0,4.984-0.238,7.031-0.715c2.045-0.475,3.752-1.375,5.122-2.701c1.368-1.324,2.407-3.148,3.116-5.469
					c0.708-2.322,1.063-5.344,1.063-9.064V9.885h3.865v28.396c0,3.365-0.307,6.371-0.918,9.02c-0.612,2.65-1.676,4.891-3.189,6.721
					c-1.515,1.83-3.575,3.23-6.185,4.197S268.255,59.67,264.261,59.67z"/>
				<path fill="#7AC478" stroke="#FFFFFF" stroke-width="4" d="M301.313,58.778h-3.865V9.885h3.865V58.778z"/>
				<path fill="#7AC478" stroke="#FFFFFF" stroke-width="4" d="M350.301,58.778h-40.686v-4.734l35.709-40.586h-32.568V9.885h36.53
					v4.777l-35.757,40.543h36.771V58.778z"/>
				<path fill="#7AC478" stroke="#FFFFFF" stroke-width="4" d="M397.73,58.778h-40.686v-4.734l35.709-40.586h-32.568V9.885h36.53
					v4.777l-35.757,40.543h36.771V58.778z"/>
				<path fill="#7AC478" stroke="#FFFFFF" stroke-width="4" d="M449.896,9.885l-20.681,27.906v20.986h-3.866V37.792L404.476,9.885
					h4.542l18.266,24.156l18.12-24.156H449.896z"/>
			</g>
			<g>
				<path fill="#9D9FA2" d="M143.897,72.494h2.379v8.684c0,1.136-0.086,2.009-0.258,2.62c-0.231,0.799-0.65,1.439-1.258,1.923
					c-0.607,0.483-1.409,0.726-2.403,0.726c-1.167,0-2.064-0.38-2.694-1.138c-0.629-0.758-0.946-1.869-0.952-3.336l2.25-0.299
					c0.026,0.786,0.126,1.341,0.298,1.665c0.258,0.493,0.65,0.739,1.177,0.739c0.532,0,0.909-0.176,1.129-0.528
					c0.22-0.353,0.331-1.084,0.331-2.194V72.494z"/>
				<path fill="#9D9FA2" d="M149.147,86.211V72.494h8.767v2.32h-6.38v3.041h5.936v2.312h-5.936V83.9h6.605v2.312H149.147z"/>
				<path fill="#9D9FA2" d="M160.495,86.211V72.494h8.767v2.32h-6.38v3.041h5.936v2.312h-5.936V83.9h6.605v2.312H160.495z"/>
				<path fill="#9D9FA2" d="M176.729,86.211V72.494h3.573l2.146,9.357l2.121-9.357h3.581v13.718h-2.218V75.413l-2.347,10.799h-2.299
					l-2.339-10.799v10.799H176.729z"/>
				<path fill="#9D9FA2" d="M201.514,86.211h-2.597l-1.033-3.116h-4.726l-0.976,3.116h-2.533l4.605-13.718h2.524L201.514,86.211z
					 M197.118,80.784l-1.629-5.09l-1.597,5.09H197.118z"/>
				<path fill="#9D9FA2" d="M203.038,86.211V72.494h2.388v13.718H203.038z"/>
				<path fill="#9D9FA2" d="M208.054,86.211V72.494h2.323l4.839,9.161v-9.161h2.219v13.718h-2.396l-4.766-8.945v8.945H208.054z"/>
				<path fill="#9D9FA2" d="M249.152,72.494h2.38v8.684c0,1.136-0.087,2.009-0.259,2.62c-0.231,0.799-0.65,1.439-1.259,1.923
					c-0.607,0.483-1.408,0.726-2.402,0.726c-1.168,0-2.064-0.38-2.694-1.138c-0.629-0.758-0.946-1.869-0.952-3.336l2.251-0.299
					c0.026,0.786,0.126,1.341,0.298,1.665c0.258,0.493,0.65,0.739,1.178,0.739c0.532,0,0.908-0.176,1.129-0.528
					s0.331-1.084,0.331-2.194V72.494z"/>
				<path fill="#9D9FA2" d="M254.402,86.211V72.494h8.767v2.32h-6.379v3.041h5.936v2.312h-5.936V83.9h6.605v2.312H254.402z"/>
				<path fill="#9D9FA2" d="M265.75,86.211V72.494h8.767v2.32h-6.379v3.041h5.936v2.312h-5.936V83.9h6.605v2.312H265.75z"/>
				<path fill="#9D9FA2" d="M292.066,86.211h-2.598l-1.032-3.116h-4.726l-0.977,3.116h-2.532l4.605-13.718h2.524L292.066,86.211z
					 M287.671,80.784l-1.63-5.09l-1.597,5.09H287.671z"/>
				<path fill="#9D9FA2" d="M293.654,72.494h4.363c0.984,0,1.734,0.087,2.251,0.262c0.693,0.237,1.287,0.658,1.782,1.264
					c0.494,0.604,0.871,1.346,1.129,2.222c0.258,0.877,0.387,1.958,0.387,3.243c0,1.129-0.121,2.102-0.362,2.919
					c-0.296,0.998-0.718,1.806-1.267,2.424c-0.414,0.468-0.974,0.833-1.678,1.095c-0.526,0.193-1.231,0.29-2.113,0.29h-4.492V72.494
					z M296.042,74.814V83.9h1.782c0.667,0,1.148-0.043,1.443-0.131c0.388-0.112,0.709-0.303,0.964-0.57
					c0.256-0.269,0.464-0.71,0.625-1.324c0.162-0.614,0.242-1.452,0.242-2.513s-0.08-1.875-0.242-2.442
					c-0.161-0.567-0.387-1.011-0.677-1.329c-0.291-0.317-0.659-0.533-1.105-0.646c-0.333-0.087-0.986-0.131-1.96-0.131H296.042z"/>
				<path fill="#9D9FA2" d="M308.938,86.211l-4.226-13.718h2.589l2.992,10.152l2.896-10.152h2.532l-4.234,13.718H308.938z"/>
				<path fill="#9D9FA2" d="M326.706,86.211h-2.598l-1.032-3.116h-4.726l-0.977,3.116h-2.532l4.605-13.718h2.524L326.706,86.211z
					 M322.311,80.784l-1.63-5.09l-1.597,5.09H322.311z"/>
				<path fill="#9D9FA2" d="M328.326,86.211V72.494h2.323l4.839,9.161v-9.161h2.218v13.718h-2.396l-4.766-8.945v8.945H328.326z"/>
				<path fill="#9D9FA2" d="M348.126,81.167l2.315,0.852c-0.355,1.497-0.945,2.609-1.771,3.336s-1.873,1.091-3.142,1.091
					c-1.57,0-2.86-0.623-3.871-1.867s-1.517-2.946-1.517-5.104c0-2.283,0.508-4.057,1.524-5.319
					c1.017-1.264,2.353-1.896,4.009-1.896c1.446,0,2.621,0.496,3.524,1.488c0.537,0.586,0.94,1.429,1.21,2.526l-2.363,0.655
					c-0.141-0.712-0.432-1.272-0.875-1.685c-0.444-0.412-0.983-0.617-1.617-0.617c-0.877,0-1.588,0.364-2.134,1.095
					c-0.546,0.729-0.818,1.912-0.818,3.546c0,1.734,0.269,2.97,0.807,3.706c0.537,0.735,1.236,1.104,2.097,1.104
					c0.635,0,1.181-0.233,1.638-0.701S347.928,82.172,348.126,81.167z"/>
				<path fill="#9D9FA2" d="M352.82,86.211V72.494h8.767v2.32h-6.38v3.041h5.937v2.312h-5.937V83.9h6.605v2.312H352.82z"/>
				<path fill="#9D9FA2" d="M364.159,72.494h4.363c0.984,0,1.734,0.087,2.251,0.262c0.693,0.237,1.287,0.658,1.782,1.264
					c0.494,0.604,0.871,1.346,1.129,2.222c0.258,0.877,0.387,1.958,0.387,3.243c0,1.129-0.121,2.102-0.362,2.919
					c-0.296,0.998-0.718,1.806-1.267,2.424c-0.414,0.468-0.974,0.833-1.678,1.095c-0.526,0.193-1.231,0.29-2.113,0.29h-4.492V72.494
					z M366.547,74.814V83.9h1.782c0.667,0,1.148-0.043,1.443-0.131c0.388-0.112,0.709-0.303,0.964-0.57
					c0.256-0.269,0.464-0.71,0.625-1.324c0.162-0.614,0.242-1.452,0.242-2.513s-0.08-1.875-0.242-2.442
					c-0.161-0.567-0.387-1.011-0.677-1.329c-0.291-0.317-0.659-0.533-1.105-0.646c-0.333-0.087-0.986-0.131-1.96-0.131H366.547z"/>
				<path fill="#9D9FA2" d="M401.047,86.211V72.494h2.323l4.839,9.161v-9.161h2.218v13.718h-2.396l-4.766-8.945v8.945H401.047z"/>
				<path fill="#9D9FA2" d="M413.282,86.211V72.494h8.767v2.32h-6.38v3.041h5.937v2.312h-5.937V83.9h6.605v2.312H413.282z"/>
				<path fill="#9D9FA2" d="M424.63,86.211V72.494h8.767v2.32h-6.38v3.041h5.937v2.312h-5.937V83.9h6.605v2.312H424.63z"/>
				<path fill="#9D9FA2" d="M438.639,86.211V74.814h-3.509v-2.32h9.396v2.32h-3.5v11.397H438.639z"/>
			</g>
		</g>
	</g>
	<g>
		<line fill="none" stroke="#01AF93" stroke-width="16" x1="10.61" y1="45.144" x2="48.549" y2="45.144"/>
		<path fill="none" stroke="#01AF93" stroke-width="16" d="M65.11,76.696c-5.339,3.065-11.526,4.827-18.126,4.827
			c-20.085,0-36.374-16.286-36.374-36.379c0-20.096,16.289-36.382,36.374-36.382c6.6,0,12.793,1.762,18.136,4.836"/>
		<g>
			<path fill="none" stroke="#01AF93" stroke-width="16" d="M87.229,8.762c-20.093,0-36.381,16.286-36.381,36.382
				c0,20.093,16.289,36.379,36.381,36.379c20.092,0,36.381-16.286,36.381-36.379C123.61,25.048,107.322,8.762,87.229,8.762z"/>
			<path fill="none" stroke="#01AF93" stroke-width="16" d="M96.105,55.337l25.488,25.808L96.105,55.337z"/>
		</g>
	</g>
</g>
</svg>
