<?xml version="1.0" encoding="utf-8"?>
<!-- Generator: Adobe Illustrator 16.0.0, SVG Export Plug-In . SVG Version: 6.00 Build 0)  -->
<!DOCTYPE svg PUBLIC "-//W3C//DTD SVG 1.1//EN" "http://www.w3.org/Graphics/SVG/1.1/DTD/svg11.dtd">
<svg version="1.1" xmlns="http://www.w3.org/2000/svg" xmlns:xlink="http://www.w3.org/1999/xlink" x="0px" y="0px" width="65px"
	 height="65px" viewBox="0 0 65 65" enable-background="new 0 0 65 65" xml:space="preserve">
<g id="Layer_2" display="none">
</g>
<g id="Layer_1">
	<g>
		<path display="none" fill-rule="evenodd" clip-rule="evenodd" fill="#FFFFFF" d="M2.378,46.85c0-14.988,0-29.976,0-44.98
			c9.783,0,19.567,0,29.351,0c-0.049,0.019-0.097,0.046-0.146,0.056c-0.713,0.137-1.434,0.236-2.135,0.416
			c-0.86,0.22-1.675,0.565-2.458,0.994c-0.719,0.394-1.412,0.824-1.986,1.413c-0.646,0.661-1.361,1.283-1.872,2.041
			c-0.688,1.02-1.267,2.135-1.499,3.369c-0.171,0.911-0.315,1.834-0.361,2.758c-0.03,0.606,0.12,1.224,0.214,1.832
			c0.191,1.229,0.723,2.333,1.315,3.407c0.464,0.842,1.113,1.539,1.797,2.211c0.78,0.767,1.687,1.345,2.625,1.885
			c1.403,0.807,2.964,1.096,4.525,1.379c0.327,0.06,0.669,0.077,1,0.058c0.627-0.036,1.253-0.105,1.877-0.174
			c0.402-0.044,0.82-0.061,1.202-0.18c0.844-0.265,1.689-0.54,2.497-0.896c1.01-0.446,1.898-1.104,2.717-1.841
			c0.754-0.679,1.436-1.434,1.969-2.299c0.319-0.52,0.548-1.096,0.813-1.648c0.496-1.026,0.687-2.141,0.787-3.249
			c0.076-0.825-0.022-1.684-0.172-2.505c-0.145-0.799-0.385-1.597-0.703-2.344c-0.475-1.11-1.151-2.11-1.983-2.995
			c-0.662-0.705-1.402-1.31-2.224-1.827c-1.353-0.853-2.799-1.435-4.38-1.686c-0.329-0.053-0.659-0.115-0.989-0.172
			c10.069,0,20.138,0,30.219,0c0,14.955,0,29.91,0,44.864c-0.134-0.406-0.242-0.823-0.407-1.217
			c-0.594-1.415-1.555-2.384-3.152-2.614c-0.771-0.112-1.454,0.121-2.075,0.486c-0.924,0.545-1.505,1.391-1.839,2.414
			c-0.314,0.962-0.391,1.948-0.212,2.931c0.116,0.641,0.279,1.309,0.59,1.871c0.417,0.756,1.031,1.368,1.856,1.744
			c0.721,0.327,1.477,0.419,2.195,0.199c1.268-0.39,2.187-1.229,2.64-2.513c0.148-0.42,0.271-0.851,0.404-1.275
			c0,5.075,0,10.15,0,15.225c-10.034,0-20.068,0-30.103,0c0.543-0.173,1.077-0.377,1.628-0.515c1.791-0.45,3.59-0.866,5.381-1.313
			c2.002-0.5,3.997-1.023,5.996-1.529c1.361-0.345,2.724-0.682,4.086-1.02c1.654-0.413,3.307-0.832,4.965-1.231
			c0.264-0.065,0.354-0.177,0.352-0.442c-0.01-1.166-0.028-2.334,0.007-3.501c0.018-0.597-0.105-1.026-0.589-1.461
			c-0.709-0.64-1.188-1.487-1.51-2.405c-0.354-1.01-0.505-2.039-0.476-3.114c0.021-0.685,0.132-1.343,0.317-1.985
			c0.362-1.253,1.026-2.338,1.979-3.236c0.196-0.186,0.271-0.394,0.271-0.657c-0.004-3.231-0.003-6.463-0.003-9.694
			c0-0.101,0-0.202,0-0.361c-7.538,1.377-15.022,2.745-22.52,4.115c0,9.468,0,18.911,0,28.352c-10.593,0-21.188,0-31.781,0
			c0-5.094,0-10.188,0-15.283c0.028,0.135,0.044,0.271,0.085,0.401c0.219,0.699,0.435,1.389,0.893,1.996
			c0.887,1.176,2.531,1.959,4.095,1.312c0.908-0.377,1.596-0.984,2.043-1.852c0.517-1.001,0.701-2.068,0.65-3.195
			c-0.042-0.925-0.31-1.762-0.765-2.55c-0.558-0.968-1.389-1.606-2.463-1.88c-0.835-0.212-1.658-0.017-2.373,0.417
			c-0.872,0.529-1.519,1.287-1.821,2.293C2.602,46.043,2.493,46.447,2.378,46.85z M31.729,63.903c0-0.177,0-0.282,0-0.388
			c0-5.885,0-11.77,0-17.655c0-3.318-0.003-6.637,0.005-9.956c0.001-0.269-0.094-0.348-0.345-0.351
			c-0.156-0.001-0.31-0.07-0.465-0.107c-0.248-0.058-0.497-0.118-0.745-0.174c-0.348-0.079-0.696-0.152-1.043-0.23
			c-0.247-0.056-0.491-0.125-0.739-0.174c-0.442-0.088-0.89-0.15-1.33-0.252c-0.482-0.111-0.954-0.271-1.437-0.38
			c-0.45-0.101-0.909-0.152-1.36-0.244c-0.616-0.125-1.229-0.264-1.842-0.404c-0.237-0.054-0.469-0.13-0.704-0.191
			c-0.281-0.073-0.562-0.147-0.845-0.208c-0.257-0.056-0.52-0.087-0.777-0.142c-0.495-0.104-0.988-0.215-1.482-0.324
			c-0.302-0.067-0.604-0.138-0.906-0.205c-0.192-0.042-0.387-0.073-0.578-0.119c-0.346-0.082-0.689-0.172-1.035-0.256
			c-0.246-0.059-0.493-0.112-0.739-0.17c-0.247-0.058-0.491-0.125-0.739-0.175c-0.452-0.091-0.907-0.163-1.356-0.261
			c-0.631-0.137-1.259-0.29-1.888-0.438c-0.21-0.049-0.417-0.112-0.628-0.154c-0.215-0.042-0.435-0.065-0.647-0.096
			c-0.016,0.083-0.023,0.102-0.023,0.121c-0.001,3.569-0.005,7.139,0.007,10.709c0.001,0.167,0.109,0.358,0.221,0.495
			c0.248,0.304,0.589,0.545,0.785,0.874c0.428,0.721,0.875,1.45,1.157,2.231c0.345,0.959,0.497,1.98,0.375,3.016
			c-0.043,0.367-0.077,0.737-0.146,1.099c-0.162,0.843-0.495,1.626-0.923,2.364c-0.311,0.532-0.619,1.083-1.121,1.462
			c-0.271,0.204-0.366,0.436-0.359,0.752c0.01,0.404,0.003,0.811,0.003,1.216c0,1.196,0.001,2.392-0.001,3.589
			c0,0.252,0.058,0.411,0.37,0.412c0.249,0.002,0.497,0.089,0.745,0.145c0.284,0.062,0.566,0.13,0.849,0.191
			c0.303,0.066,0.607,0.124,0.909,0.192c0.292,0.066,0.582,0.145,0.874,0.213c0.318,0.074,0.639,0.144,0.958,0.214
			c0.174,0.038,0.348,0.077,0.521,0.116c0.448,0.103,0.894,0.212,1.343,0.305c0.441,0.092,0.889,0.154,1.33,0.25
			c0.448,0.098,0.89,0.223,1.335,0.333c0.236,0.059,0.474,0.113,0.71,0.17c0.246,0.058,0.491,0.125,0.739,0.175
			c0.443,0.086,0.89,0.149,1.33,0.251c0.482,0.112,0.954,0.269,1.437,0.38c0.539,0.128,1.084,0.225,1.626,0.34
			c0.266,0.057,0.528,0.129,0.794,0.188c0.321,0.069,0.645,0.124,0.964,0.197c0.255,0.06,0.503,0.147,0.759,0.206
			c0.511,0.117,1.023,0.228,1.538,0.334c0.249,0.051,0.501,0.083,0.75,0.134c0.276,0.055,0.548,0.126,0.823,0.186
			C31.081,63.773,31.384,63.833,31.729,63.903z M48.781,30.676c-0.042-0.105-0.05-0.196-0.098-0.235
			c-0.552-0.448-1.087-0.922-1.673-1.323c-0.723-0.495-1.471-0.96-2.24-1.38c-1.003-0.545-2.018-1.077-3.063-1.533
			c-1.374-0.6-2.82-0.999-4.287-1.309c-0.86-0.181-1.729-0.332-2.601-0.441c-0.69-0.086-1.393-0.131-2.089-0.114
			c-0.836,0.021-1.675-0.004-2.505,0.208c-0.884,0.226-1.803,0.316-2.687,0.542c-1.472,0.377-2.898,0.904-4.267,1.564
			c-0.867,0.419-1.714,0.887-2.537,1.388c-0.911,0.555-1.785,1.169-2.669,1.766c-0.077,0.052-0.114,0.165-0.17,0.249
			c0.09,0.059,0.173,0.143,0.272,0.171c0.18,0.052,0.373,0.06,0.554,0.107c0.882,0.231,1.759,0.477,2.642,0.703
			c0.735,0.188,1.477,0.355,2.215,0.535c0.535,0.13,1.069,0.262,1.601,0.402c0.725,0.19,1.445,0.395,2.17,0.583
			c0.689,0.18,1.383,0.342,2.074,0.521c0.66,0.169,1.32,0.344,1.978,0.525c0.424,0.117,0.841,0.266,1.269,0.367
			c0.311,0.074,0.637,0.142,0.95,0.126c0.303-0.016,0.6-0.145,0.9-0.22c0.236-0.059,0.474-0.116,0.711-0.169
			c0.394-0.088,0.789-0.169,1.182-0.261c0.255-0.06,0.504-0.148,0.76-0.2c0.544-0.109,1.094-0.188,1.636-0.307
			c0.503-0.11,0.994-0.27,1.496-0.384c0.574-0.132,1.156-0.236,1.734-0.36c0.605-0.129,1.209-0.264,1.813-0.402
			c0.265-0.061,0.525-0.134,0.788-0.203c0.327-0.085,0.65-0.18,0.979-0.255c0.395-0.089,0.793-0.159,1.188-0.243
			c0.229-0.049,0.453-0.115,0.683-0.163C47.902,30.846,48.317,30.768,48.781,30.676z"/>
		<path fill-rule="evenodd" clip-rule="evenodd" fill="#558153" d="M34.159,63.984c0-9.441,0-18.884,0-28.352
			c7.497-1.37,14.981-2.738,22.52-4.115c0,0.159,0,0.26,0,0.361c0,3.231-0.001,6.463,0.003,9.694c0,0.264-0.074,0.472-0.271,0.657
			c-0.952,0.898-1.616,1.983-1.979,3.236c-0.186,0.643-0.297,1.301-0.317,1.985c-0.029,1.075,0.121,2.104,0.476,3.114
			c0.322,0.918,0.801,1.766,1.51,2.405c0.483,0.435,0.606,0.864,0.589,1.461c-0.035,1.167-0.017,2.335-0.007,3.501
			c0.003,0.266-0.088,0.377-0.352,0.442c-1.658,0.399-21.513,5.436-22.056,5.608C34.236,63.984,34.198,63.984,34.159,63.984z"/>
		<path fill-rule="evenodd" clip-rule="evenodd" fill="#008B8B" d="M2.378,46.85c0.115-0.402,0.224-0.807,0.345-1.206
			c0.302-1.006,0.949-1.764,1.821-2.293c0.715-0.434,1.538-0.629,2.373-0.417c1.074,0.273,1.905,0.912,2.463,1.88
			c0.455,0.788,0.723,1.625,0.765,2.55c0.051,1.127-0.133,2.194-0.65,3.195c-0.447,0.867-1.135,1.475-2.043,1.852
			c-1.564,0.647-3.208-0.136-4.095-1.312c-0.458-0.607-0.673-1.297-0.893-1.996c-0.041-0.13-0.058-0.267-0.085-0.401
			C2.378,48.084,2.378,47.468,2.378,46.85z"/>
		<path fill-rule="evenodd" clip-rule="evenodd" fill="#008B8B" d="M64.378,48.76c-0.134,0.425-0.256,0.855-0.404,1.275
			c-0.453,1.283-1.372,2.123-2.64,2.513c-0.719,0.22-1.475,0.128-2.195-0.199c-0.825-0.376-1.439-0.988-1.856-1.744
			c-0.311-0.563-0.474-1.23-0.59-1.871c-0.179-0.982-0.103-1.969,0.212-2.931c0.334-1.023,0.915-1.869,1.839-2.414
			c0.621-0.365,1.304-0.599,2.075-0.486c1.598,0.23,2.559,1.199,3.152,2.614c0.165,0.394,0.273,0.811,0.407,1.217
			C64.378,47.408,64.378,48.084,64.378,48.76z"/>
		<path fill-rule="evenodd" clip-rule="evenodd" fill="#558153" d="M31.729,63.903c-0.345-0.07-21.033-4.711-21.282-4.713
			c-0.312-0.001-0.371-0.16-0.37-0.412c0.002-1.197,0.008-4.4-0.002-4.805c-0.007-0.316,0.087-0.548,0.359-0.752
			c0.502-0.379,0.811-0.93,1.121-1.462c0.428-0.738,1.026-3.096,1.069-3.463c0.122-1.035-0.029-2.057-0.375-3.016
			c-0.282-0.781-0.729-1.511-1.157-2.231c-0.196-0.329-0.537-0.57-0.785-0.874c-0.112-0.137-0.22-0.328-0.221-0.495
			c-0.012-3.57-0.008-7.14-0.007-10.709c0-0.019,21.654,4.665,21.653,4.933c-0.008,3.319-0.005,21.726-0.005,27.611
			C31.729,63.621,31.729,63.727,31.729,63.903z"/>
		<g>
			<g>
				<path fill-rule="evenodd" clip-rule="evenodd" d="M47.579,29.155c-0.464,0.091-13.849,4.767-14.151,4.783
					c-0.313,0.016-14.06-4.724-14.15-4.783c0.056-0.084,8.14-4.66,14.15-4.624S47.537,29.049,47.579,29.155z"/>
			</g>
		</g>
	</g>
	<ellipse fill-rule="evenodd" clip-rule="evenodd" cx="32.951" cy="12.499" rx="11.406" ry="11"/>
</g>
</svg>
